<?xml version="1.0" encoding="UTF-8"?>
<svg xmlns="http://www.w3.org/2000/svg" xmlns:xlink="http://www.w3.org/1999/xlink" width="375pt" height="374.999991pt" viewBox="0 0 375 374.999991" version="1.2">
<g id="surface1">
<path style="fill:none;stroke-width:1;stroke-linecap:round;stroke-linejoin:miter;stroke:rgb(0%,0%,0%);stroke-opacity:1;stroke-miterlimit:4;" d="M 0.499955 0.000405761 L 80.57921 0.000405761 " transform="matrix(0.000000000000000229,-3.746386,3.75,0.00000000000000023,39.373478,339.521462)"/>
<path style="fill:none;stroke-width:1;stroke-linecap:round;stroke-linejoin:miter;stroke:rgb(0%,0%,0%);stroke-opacity:1;stroke-miterlimit:4;" d="M 0.499955 0.000411077 L 80.57921 0.000411077 " transform="matrix(0.000000000000000229,-3.746386,3.75,0.00000000000000023,335.623458,339.521462)"/>
<path style="fill:none;stroke-width:1;stroke-linecap:round;stroke-linejoin:miter;stroke:rgb(0%,0%,0%);stroke-opacity:1;stroke-miterlimit:4;" d="M 0.499943 -0.000221991 L 55.834229 -0.000221991 " transform="matrix(2.654887,2.654887,-2.65165,2.65165,38.824462,36.806108)"/>
<path style="fill:none;stroke-width:1;stroke-linecap:round;stroke-linejoin:miter;stroke:rgb(0%,0%,0%);stroke-opacity:1;stroke-miterlimit:4;" d="M 0.500153 -0.000510237 L 55.838372 0.000226332 " transform="matrix(-2.654592,2.654592,-2.65165,-2.65165,335.963068,36.557664)"/>
<path style="fill:none;stroke-width:1;stroke-linecap:round;stroke-linejoin:miter;stroke:rgb(0%,0%,0%);stroke-opacity:1;stroke-miterlimit:4;" d="M 0.500174 0.000120446 L 9.641442 0.000120446 " transform="matrix(3.771957,0,0,3.75,28.191492,337.647986)"/>
<path style="fill:none;stroke-width:1;stroke-linecap:round;stroke-linejoin:miter;stroke:rgb(0%,0%,0%);stroke-opacity:1;stroke-miterlimit:4;" d="M 0.499579 0.000120446 L 9.641884 0.000120446 " transform="matrix(3.771957,0,0,3.75,323.111702,337.647986)"/>
<path style="fill:none;stroke-width:1;stroke-linecap:round;stroke-linejoin:miter;stroke:rgb(0%,0%,0%);stroke-opacity:1;stroke-miterlimit:4;" d="M 0.500174 0.0000335324 L 9.641442 0.0000335324 " transform="matrix(3.771957,0,0,3.75,28.191492,37.105343)"/>
<path style="fill:none;stroke-width:1;stroke-linecap:round;stroke-linejoin:miter;stroke:rgb(0%,0%,0%);stroke-opacity:1;stroke-miterlimit:4;" d="M 0.499579 0.0000335324 L 9.641884 0.0000335324 " transform="matrix(3.771957,0,0,3.75,323.111702,37.105343)"/>
<path style="fill:none;stroke-width:1;stroke-linecap:round;stroke-linejoin:miter;stroke:rgb(0%,0%,0%);stroke-opacity:1;stroke-miterlimit:4;" d="M 0.500516 -0.000294483 L 80.578728 -0.000294483 " transform="matrix(0.000000000000000229,-3.746386,3.75,0.00000000000000023,344.001104,339.527469)"/>
<path style="fill:none;stroke-width:1;stroke-linecap:round;stroke-linejoin:miter;stroke:rgb(0%,0%,0%);stroke-opacity:1;stroke-miterlimit:4;" d="M 0.499971 -0.000158812 L 55.838925 -0.000158812 " transform="matrix(-2.654592,2.654592,-2.65165,-2.65165,336.170548,49.562985)"/>
<path style="fill:none;stroke-width:1;stroke-linecap:round;stroke-linejoin:miter;stroke:rgb(0%,0%,0%);stroke-opacity:1;stroke-miterlimit:4;" d="M 0.50023 0.0000154666 L 77.577398 0.0000154666 " transform="matrix(0.000000000000000229,-3.746398,3.75,0.00000000000000023,47.203067,337.643591)"/>
<path style="fill:none;stroke-width:1;stroke-linecap:round;stroke-linejoin:miter;stroke:rgb(0%,0%,0%);stroke-opacity:1;stroke-miterlimit:4;" d="M 0.499472 0.000169235 L 50.096892 0.000169235 " transform="matrix(2.651978,2.651978,-2.65165,2.65165,52.003986,36.542151)"/>
</g>
</svg>
