<?xml version="1.0" encoding="UTF-8"?>
<svg xmlns="http://www.w3.org/2000/svg" xmlns:xlink="http://www.w3.org/1999/xlink" width="375pt" height="374.999991pt" viewBox="0 0 375 374.999991" version="1.2">
<defs>
<clipPath id="clip1">
  <path d="M 7.25 54.609375 L 159 54.609375 L 159 320.109375 L 7.25 320.109375 Z M 7.25 54.609375 "/>
</clipPath>
<clipPath id="clip2">
  <path d="M 7.25 172.386719 L 159 172.386719 L 159 320.109375 L 7.25 320.109375 Z M 7.25 172.386719 "/>
</clipPath>
<clipPath id="clip3">
  <path d="M 216 54.609375 L 367.953125 54.609375 L 367.953125 320.109375 L 216 320.109375 Z M 216 54.609375 "/>
</clipPath>
<clipPath id="clip4">
  <path d="M 216 172.386719 L 367.953125 172.386719 L 367.953125 320.109375 L 216 320.109375 Z M 216 172.386719 "/>
</clipPath>
<clipPath id="clip5">
  <path d="M 367 172 L 374.707031 172 L 374.707031 203 L 367 203 Z M 367 172 "/>
</clipPath>
</defs>
<g id="surface1">
<path style=" stroke:none;fill-rule:nonzero;fill:rgb(100%,100%,100%);fill-opacity:1;" d="M 165.585938 191.722656 C 163.214844 191.722656 161.585938 191.292969 161.441406 191.253906 L 163.53125 183.464844 C 163.707031 183.5 167.9375 184.511719 171.609375 181.71875 C 175.601562 178.671875 177.828125 172.015625 178.039062 162.464844 C 178.671875 134.140625 178.101562 98.949219 178.042969 95.765625 C 177.8125 93.925781 177.039062 85.613281 181.191406 80.828125 C 183.097656 78.625 185.730469 77.464844 188.804688 77.464844 C 191.882812 77.464844 194.515625 78.625 196.425781 80.828125 C 200.542969 85.585938 199.804688 93.816406 199.570312 95.722656 L 199.570312 162.554688 C 199.546875 163.019531 198.390625 182.613281 209.125 183.339844 L 208.578125 191.386719 C 200.644531 190.847656 194.996094 185.21875 192.664062 175.519531 C 191.074219 168.921875 191.488281 162.546875 191.503906 162.28125 L 191.496094 95.167969 L 191.539062 94.886719 C 191.894531 92.324219 191.757812 87.757812 190.316406 86.109375 C 190.074219 85.824219 189.734375 85.535156 188.804688 85.535156 C 187.875 85.535156 187.539062 85.824219 187.296875 86.109375 C 185.859375 87.757812 185.714844 92.324219 186.074219 94.898438 L 186.113281 95.386719 C 186.121094 95.761719 186.78125 132.9375 186.113281 162.648438 C 185.832031 175.015625 182.554688 183.632812 176.359375 188.25 C 172.5625 191.074219 168.511719 191.722656 165.585938 191.722656 "/>
<g clip-path="url(#clip1)" clip-rule="nonzero">
<path style=" stroke:none;fill-rule:nonzero;fill:rgb(17.649841%,27.839661%,36.859131%);fill-opacity:1;" d="M 158.902344 303.652344 C 158.902344 312.75 151.519531 320.121094 142.417969 320.121094 L 23.945312 320.121094 C 14.847656 320.121094 7.464844 312.75 7.464844 303.652344 L 7.464844 71.078125 C 7.464844 61.984375 14.847656 54.613281 23.945312 54.613281 L 142.417969 54.613281 C 151.519531 54.613281 158.902344 61.984375 158.902344 71.078125 L 158.902344 303.652344 "/>
</g>
<path style=" stroke:none;fill-rule:nonzero;fill:rgb(0%,76.078796%,79.60968%);fill-opacity:1;" d="M 147.683594 146.089844 C 147.683594 155.183594 140.304688 162.554688 131.203125 162.554688 L 35.96875 162.554688 C 26.859375 162.554688 19.480469 155.183594 19.480469 146.089844 L 19.480469 81.136719 C 19.480469 72.046875 26.859375 64.671875 35.96875 64.671875 L 131.203125 64.671875 C 140.304688 64.671875 147.683594 72.046875 147.683594 81.136719 L 147.683594 146.089844 "/>
<g clip-path="url(#clip2)" clip-rule="nonzero">
<path style=" stroke:none;fill-rule:nonzero;fill:rgb(26.669312%,43.528748%,55.688477%);fill-opacity:1;" d="M 7.464844 172.617188 L 7.464844 303.652344 C 7.464844 312.75 14.847656 320.121094 23.945312 320.121094 L 142.417969 320.121094 C 151.519531 320.121094 158.902344 312.75 158.902344 303.652344 L 158.902344 172.617188 L 7.464844 172.617188 "/>
</g>
<path style=" stroke:none;fill-rule:nonzero;fill:rgb(17.649841%,27.839661%,36.859131%);fill-opacity:1;" d="M 150.429688 307.542969 L 15.820312 307.542969 L 15.820312 216.980469 L 150.429688 216.980469 L 150.429688 307.542969 "/>
<path style=" stroke:none;fill-rule:nonzero;fill:rgb(17.649841%,27.839661%,36.859131%);fill-opacity:1;" d="M 60.285156 104.464844 C 60.285156 111.789062 54.34375 117.730469 47.007812 117.730469 C 39.679688 117.730469 33.734375 111.789062 33.734375 104.464844 C 33.734375 97.136719 39.679688 91.195312 47.007812 91.195312 C 54.34375 91.195312 60.285156 97.136719 60.285156 104.464844 "/>
<path style=" stroke:none;fill-rule:nonzero;fill:rgb(17.649841%,27.839661%,36.859131%);fill-opacity:1;" d="M 99.660156 133.5625 C 99.660156 140.882812 93.71875 146.828125 86.386719 146.828125 C 79.050781 146.828125 73.105469 140.882812 73.105469 133.5625 C 73.105469 126.234375 79.050781 120.296875 86.386719 120.296875 C 93.71875 120.296875 99.660156 126.234375 99.660156 133.5625 "/>
<path style=" stroke:none;fill-rule:nonzero;fill:rgb(17.649841%,27.839661%,36.859131%);fill-opacity:1;" d="M 134.738281 104.464844 C 134.738281 111.789062 128.789062 117.730469 121.460938 117.730469 C 114.121094 117.730469 108.175781 111.789062 108.175781 104.464844 C 108.175781 97.136719 114.121094 91.195312 121.460938 91.195312 C 128.789062 91.195312 134.738281 97.136719 134.738281 104.464844 "/>
<path style=" stroke:none;fill-rule:nonzero;fill:rgb(0%,76.078796%,79.60968%);fill-opacity:1;" d="M 7.464844 202.515625 L 0.253906 202.515625 L 0.253906 172.214844 L 7.464844 172.214844 L 7.464844 202.515625 "/>
<path style=" stroke:none;fill-rule:nonzero;fill:rgb(0%,76.078796%,79.60968%);fill-opacity:1;" d="M 166.109375 202.515625 L 158.902344 202.515625 L 158.902344 172.214844 L 166.109375 172.214844 L 166.109375 202.515625 "/>
<g clip-path="url(#clip3)" clip-rule="nonzero">
<path style=" stroke:none;fill-rule:nonzero;fill:rgb(17.649841%,27.839661%,36.859131%);fill-opacity:1;" d="M 367.5 303.652344 C 367.5 312.75 360.117188 320.121094 351.019531 320.121094 L 232.542969 320.121094 C 223.441406 320.121094 216.0625 312.75 216.0625 303.652344 L 216.0625 71.078125 C 216.0625 61.984375 223.441406 54.613281 232.542969 54.613281 L 351.019531 54.613281 C 360.117188 54.613281 367.5 61.984375 367.5 71.078125 L 367.5 303.652344 "/>
</g>
<path style=" stroke:none;fill-rule:nonzero;fill:rgb(0%,76.078796%,79.60968%);fill-opacity:1;" d="M 356.28125 146.089844 C 356.28125 155.183594 348.902344 162.554688 339.804688 162.554688 L 244.566406 162.554688 C 235.457031 162.554688 228.078125 155.183594 228.078125 146.089844 L 228.078125 81.136719 C 228.078125 72.046875 235.457031 64.671875 244.566406 64.671875 L 339.804688 64.671875 C 348.902344 64.671875 356.28125 72.046875 356.28125 81.136719 L 356.28125 146.089844 "/>
<g clip-path="url(#clip4)" clip-rule="nonzero">
<path style=" stroke:none;fill-rule:nonzero;fill:rgb(26.669312%,43.528748%,55.688477%);fill-opacity:1;" d="M 216.0625 172.617188 L 216.0625 303.652344 C 216.0625 312.75 223.441406 320.121094 232.542969 320.121094 L 351.019531 320.121094 C 360.117188 320.121094 367.5 312.75 367.5 303.652344 L 367.5 172.617188 L 216.0625 172.617188 "/>
</g>
<path style=" stroke:none;fill-rule:nonzero;fill:rgb(17.649841%,27.839661%,36.859131%);fill-opacity:1;" d="M 359.027344 307.542969 L 224.417969 307.542969 L 224.417969 216.980469 L 359.027344 216.980469 L 359.027344 307.542969 "/>
<path style=" stroke:none;fill-rule:nonzero;fill:rgb(0%,76.078796%,79.60968%);fill-opacity:1;" d="M 216.0625 202.515625 L 208.847656 202.515625 L 208.847656 172.214844 L 216.0625 172.214844 L 216.0625 202.515625 "/>
<g clip-path="url(#clip5)" clip-rule="nonzero">
<path style=" stroke:none;fill-rule:nonzero;fill:rgb(0%,76.078796%,79.60968%);fill-opacity:1;" d="M 374.710938 202.515625 L 367.5 202.515625 L 367.5 172.214844 L 374.710938 172.214844 L 374.710938 202.515625 "/>
</g>
<path style=" stroke:none;fill-rule:nonzero;fill:rgb(17.649841%,27.839661%,36.859131%);fill-opacity:1;" d="M 249.105469 148.566406 L 244.390625 148.566406 L 244.390625 78.660156 L 249.105469 78.660156 L 249.105469 148.566406 "/>
<path style=" stroke:none;fill-rule:nonzero;fill:rgb(26.669312%,43.528748%,55.688477%);fill-opacity:1;" d="M 252.46875 98.824219 L 241.027344 98.824219 L 241.027344 92.101562 L 252.46875 92.101562 L 252.46875 98.824219 "/>
<path style=" stroke:none;fill-rule:nonzero;fill:rgb(17.649841%,27.839661%,36.859131%);fill-opacity:1;" d="M 264.246094 148.566406 L 259.53125 148.566406 L 259.53125 78.660156 L 264.246094 78.660156 L 264.246094 148.566406 "/>
<path style=" stroke:none;fill-rule:nonzero;fill:rgb(26.669312%,43.528748%,55.688477%);fill-opacity:1;" d="M 267.613281 123.660156 L 256.171875 123.660156 L 256.171875 116.9375 L 267.613281 116.9375 L 267.613281 123.660156 "/>
<path style=" stroke:none;fill-rule:nonzero;fill:rgb(17.649841%,27.839661%,36.859131%);fill-opacity:1;" d="M 279.390625 148.566406 L 274.679688 148.566406 L 274.679688 78.660156 L 279.390625 78.660156 L 279.390625 148.566406 "/>
<path style=" stroke:none;fill-rule:nonzero;fill:rgb(26.669312%,43.528748%,55.688477%);fill-opacity:1;" d="M 282.757812 107.824219 L 271.316406 107.824219 L 271.316406 101.109375 L 282.757812 101.109375 L 282.757812 107.824219 "/>
<path style=" stroke:none;fill-rule:nonzero;fill:rgb(17.649841%,27.839661%,36.859131%);fill-opacity:1;" d="M 294.535156 148.566406 L 289.824219 148.566406 L 289.824219 78.660156 L 294.535156 78.660156 L 294.535156 148.566406 "/>
<path style=" stroke:none;fill-rule:nonzero;fill:rgb(26.669312%,43.528748%,55.688477%);fill-opacity:1;" d="M 297.898438 98.824219 L 286.460938 98.824219 L 286.460938 92.101562 L 297.898438 92.101562 L 297.898438 98.824219 "/>
<path style=" stroke:none;fill-rule:nonzero;fill:rgb(17.649841%,27.839661%,36.859131%);fill-opacity:1;" d="M 309.679688 148.566406 L 304.96875 148.566406 L 304.96875 78.660156 L 309.679688 78.660156 L 309.679688 148.566406 "/>
<path style=" stroke:none;fill-rule:nonzero;fill:rgb(26.669312%,43.528748%,55.688477%);fill-opacity:1;" d="M 313.042969 136.921875 L 301.605469 136.921875 L 301.605469 130.203125 L 313.042969 130.203125 L 313.042969 136.921875 "/>
<path style=" stroke:none;fill-rule:nonzero;fill:rgb(17.649841%,27.839661%,36.859131%);fill-opacity:1;" d="M 324.824219 148.566406 L 320.113281 148.566406 L 320.113281 78.660156 L 324.824219 78.660156 L 324.824219 148.566406 "/>
<path style=" stroke:none;fill-rule:nonzero;fill:rgb(26.669312%,43.528748%,55.688477%);fill-opacity:1;" d="M 328.1875 116.976562 L 316.746094 116.976562 L 316.746094 110.25 L 328.1875 110.25 L 328.1875 116.976562 "/>
<path style=" stroke:none;fill-rule:nonzero;fill:rgb(17.649841%,27.839661%,36.859131%);fill-opacity:1;" d="M 339.964844 148.566406 L 335.253906 148.566406 L 335.253906 78.660156 L 339.964844 78.660156 L 339.964844 148.566406 "/>
<path style=" stroke:none;fill-rule:nonzero;fill:rgb(26.669312%,43.528748%,55.688477%);fill-opacity:1;" d="M 343.332031 98.824219 L 331.890625 98.824219 L 331.890625 92.101562 L 343.332031 92.101562 L 343.332031 98.824219 "/>
</g>
</svg>
